<?xml version="1.0"?>
<svg xmlns="http://www.w3.org/2000/svg" xmlns:xlink="http://www.w3.org/1999/xlink" xmlns:svgjs="http://svgjs.com/svgjs" version="1.1" width="256" height="256" x="0" y="0" viewBox="0 0 24 24" style="enable-background:new 0 0 512 512" xml:space="preserve"><g><path d="M15,0H9A5.006,5.006,0,0,0,4,5V19a5.006,5.006,0,0,0,5,5h6a5.006,5.006,0,0,0,5-5V5A5.006,5.006,0,0,0,15,0ZM9,2h6a3,3,0,0,1,3,3V16H6V5A3,3,0,0,1,9,2Zm6,20H9a3,3,0,0,1-3-3V18H18v1A3,3,0,0,1,15,22Z" fill="#ffffff" data-original="#000000"/><circle cx="12" cy="20" r="1" fill="#ffffff" data-original="#000000"/></g></svg>
